<svg id="visual" viewBox="0 0 2000 1000" width="2000" height="1000" xmlns="http://www.w3.org/2000/svg" xmlns:xlink="http://www.w3.org/1999/xlink" version="1.1"><rect x="0" y="0" width="2000" height="1000" fill="#ffffff"></rect><path d="M0 345L47.7 340.7C95.3 336.3 190.7 327.7 285.8 320.2C381 312.7 476 306.3 571.2 314C666.3 321.7 761.7 343.3 857 354.3C952.3 365.3 1047.7 365.7 1143 356.3C1238.3 347 1333.7 328 1428.8 310.7C1524 293.3 1619 277.7 1714.2 278.8C1809.3 280 1904.7 298 1952.3 307L2000 316L2000 0L1952.3 0C1904.7 0 1809.3 0 1714.2 0C1619 0 1524 0 1428.8 0C1333.7 0 1238.3 0 1143 0C1047.7 0 952.3 0 857 0C761.7 0 666.3 0 571.2 0C476 0 381 0 285.8 0C190.7 0 95.3 0 47.7 0L0 0Z" fill="#fdca90"></path><path d="M0 327L47.7 319.8C95.3 312.7 190.7 298.3 285.8 282.3C381 266.3 476 248.7 571.2 247C666.3 245.3 761.7 259.7 857 275.8C952.3 292 1047.7 310 1143 305.7C1238.3 301.3 1333.7 274.7 1428.8 267.8C1524 261 1619 274 1714.2 267.2C1809.3 260.3 1904.7 233.7 1952.3 220.3L2000 207L2000 0L1952.3 0C1904.7 0 1809.3 0 1714.2 0C1619 0 1524 0 1428.8 0C1333.7 0 1238.3 0 1143 0C1047.7 0 952.3 0 857 0C761.7 0 666.3 0 571.2 0C476 0 381 0 285.8 0C190.7 0 95.3 0 47.7 0L0 0Z" fill="#e6a18f"></path><path d="M0 274L47.7 275C95.3 276 190.7 278 285.8 274.2C381 270.3 476 260.7 571.2 252.2C666.3 243.7 761.7 236.3 857 227.3C952.3 218.3 1047.7 207.7 1143 215.8C1238.3 224 1333.7 251 1428.8 245.8C1524 240.7 1619 203.3 1714.2 202.8C1809.3 202.3 1904.7 238.7 1952.3 256.8L2000 275L2000 0L1952.3 0C1904.7 0 1809.3 0 1714.2 0C1619 0 1524 0 1428.8 0C1333.7 0 1238.3 0 1143 0C1047.7 0 952.3 0 857 0C761.7 0 666.3 0 571.2 0C476 0 381 0 285.8 0C190.7 0 95.3 0 47.7 0L0 0Z" fill="#bb828e"></path><path d="M0 223L47.7 213.3C95.3 203.7 190.7 184.3 285.8 175.2C381 166 476 167 571.2 173.2C666.3 179.3 761.7 190.7 857 192.5C952.3 194.3 1047.7 186.7 1143 180.5C1238.3 174.3 1333.7 169.7 1428.8 178.7C1524 187.7 1619 210.3 1714.2 217.8C1809.3 225.3 1904.7 217.7 1952.3 213.8L2000 210L2000 0L1952.3 0C1904.7 0 1809.3 0 1714.2 0C1619 0 1524 0 1428.8 0C1333.7 0 1238.3 0 1143 0C1047.7 0 952.3 0 857 0C761.7 0 666.3 0 571.2 0C476 0 381 0 285.8 0C190.7 0 95.3 0 47.7 0L0 0Z" fill="#866b80"></path><path d="M0 98L47.7 110.5C95.3 123 190.7 148 285.8 157.8C381 167.7 476 162.3 571.2 156.8C666.3 151.3 761.7 145.7 857 140.3C952.3 135 1047.7 130 1143 136.2C1238.3 142.3 1333.7 159.7 1428.8 161.3C1524 163 1619 149 1714.2 148.7C1809.3 148.3 1904.7 161.7 1952.3 168.3L2000 175L2000 0L1952.3 0C1904.7 0 1809.3 0 1714.2 0C1619 0 1524 0 1428.8 0C1333.7 0 1238.3 0 1143 0C1047.7 0 952.3 0 857 0C761.7 0 666.3 0 571.2 0C476 0 381 0 285.8 0C190.7 0 95.3 0 47.7 0L0 0Z" fill="#575463"></path><path d="M0 66L47.7 73.5C95.3 81 190.7 96 285.8 101.2C381 106.3 476 101.7 571.2 92.3C666.3 83 761.7 69 857 62.7C952.3 56.3 1047.7 57.7 1143 56.2C1238.3 54.7 1333.7 50.3 1428.8 56.5C1524 62.7 1619 79.3 1714.2 90.2C1809.3 101 1904.7 106 1952.3 108.5L2000 111L2000 0L1952.3 0C1904.7 0 1809.3 0 1714.2 0C1619 0 1524 0 1428.8 0C1333.7 0 1238.3 0 1143 0C1047.7 0 952.3 0 857 0C761.7 0 666.3 0 571.2 0C476 0 381 0 285.8 0C190.7 0 95.3 0 47.7 0L0 0Z" fill="#383a3d"></path></svg>