<svg id="visual" viewBox="0 0 900 600" width="900" height="600" xmlns="http://www.w3.org/2000/svg" xmlns:xlink="http://www.w3.org/1999/xlink" version="1.1"><rect x="0" y="0" width="900" height="600" fill="#ffffff"></rect><path d="M0 382L21.5 385.5C43 389 86 396 128.8 395.2C171.7 394.3 214.3 385.7 257.2 390.3C300 395 343 413 385.8 420.2C428.7 427.3 471.3 423.7 514.2 416.5C557 409.3 600 398.7 642.8 402.5C685.7 406.3 728.3 424.7 771.2 426.2C814 427.7 857 412.3 878.5 404.7L900 397L900 601L878.5 601C857 601 814 601 771.2 601C728.3 601 685.7 601 642.8 601C600 601 557 601 514.2 601C471.3 601 428.7 601 385.8 601C343 601 300 601 257.2 601C214.3 601 171.7 601 128.8 601C86 601 43 601 21.5 601L0 601Z" fill="#fdca90"></path><path d="M0 451L21.5 446.7C43 442.3 86 433.7 128.8 435.7C171.7 437.7 214.3 450.3 257.2 452.8C300 455.3 343 447.7 385.8 438.8C428.7 430 471.3 420 514.2 425.8C557 431.7 600 453.3 642.8 456.3C685.7 459.3 728.3 443.7 771.2 436.2C814 428.7 857 429.3 878.5 429.7L900 430L900 601L878.5 601C857 601 814 601 771.2 601C728.3 601 685.7 601 642.8 601C600 601 557 601 514.2 601C471.3 601 428.7 601 385.8 601C343 601 300 601 257.2 601C214.3 601 171.7 601 128.8 601C86 601 43 601 21.5 601L0 601Z" fill="#dd9890"></path><path d="M0 440L21.5 451.8C43 463.7 86 487.3 128.8 492.2C171.7 497 214.3 483 257.2 473.2C300 463.3 343 457.7 385.8 452.8C428.7 448 471.3 444 514.2 442.8C557 441.7 600 443.3 642.8 451.5C685.7 459.7 728.3 474.3 771.2 480C814 485.7 857 482.3 878.5 480.7L900 479L900 601L878.5 601C857 601 814 601 771.2 601C728.3 601 685.7 601 642.8 601C600 601 557 601 514.2 601C471.3 601 428.7 601 385.8 601C343 601 300 601 257.2 601C214.3 601 171.7 601 128.8 601C86 601 43 601 21.5 601L0 601Z" fill="#a17689"></path><path d="M0 520L21.5 521.2C43 522.3 86 524.7 128.8 521.8C171.7 519 214.3 511 257.2 505.5C300 500 343 497 385.8 496.7C428.7 496.3 471.3 498.7 514.2 496.5C557 494.3 600 487.7 642.8 491.8C685.7 496 728.3 511 771.2 517.3C814 523.7 857 521.3 878.5 520.2L900 519L900 601L878.5 601C857 601 814 601 771.2 601C728.3 601 685.7 601 642.8 601C600 601 557 601 514.2 601C471.3 601 428.7 601 385.8 601C343 601 300 601 257.2 601C214.3 601 171.7 601 128.8 601C86 601 43 601 21.5 601L0 601Z" fill="#615a6b"></path><path d="M0 561L21.5 560C43 559 86 557 128.8 556.8C171.7 556.7 214.3 558.3 257.2 553.5C300 548.7 343 537.3 385.8 535.8C428.7 534.3 471.3 542.7 514.2 543.3C557 544 600 537 642.8 534.7C685.7 532.3 728.3 534.7 771.2 534.3C814 534 857 531 878.5 529.5L900 528L900 601L878.5 601C857 601 814 601 771.2 601C728.3 601 685.7 601 642.8 601C600 601 557 601 514.2 601C471.3 601 428.7 601 385.8 601C343 601 300 601 257.2 601C214.3 601 171.7 601 128.8 601C86 601 43 601 21.5 601L0 601Z" fill="#383a3d"></path></svg>