<svg id="visual" viewBox="0 0 900 600" width="900" height="600" xmlns="http://www.w3.org/2000/svg" xmlns:xlink="http://www.w3.org/1999/xlink" version="1.1"><rect x="0" y="0" width="900" height="600" fill="#ffffff"></rect><path d="M0 229L21.5 230.8C43 232.7 86 236.3 128.8 228.3C171.7 220.3 214.3 200.7 257.2 188.8C300 177 343 173 385.8 173C428.7 173 471.3 177 514.2 185.8C557 194.7 600 208.3 642.8 204.2C685.7 200 728.3 178 771.2 175.2C814 172.3 857 188.7 878.5 196.8L900 205L900 0L878.5 0C857 0 814 0 771.2 0C728.3 0 685.7 0 642.8 0C600 0 557 0 514.2 0C471.3 0 428.7 0 385.8 0C343 0 300 0 257.2 0C214.3 0 171.7 0 128.8 0C86 0 43 0 21.5 0L0 0Z" fill="#ffffff"></path><path d="M0 134L21.5 140.5C43 147 86 160 128.8 164.3C171.7 168.7 214.3 164.3 257.2 165.2C300 166 343 172 385.8 173.2C428.7 174.3 471.3 170.7 514.2 161.3C557 152 600 137 642.8 131.7C685.7 126.3 728.3 130.7 771.2 133.2C814 135.7 857 136.3 878.5 136.7L900 137L900 0L878.5 0C857 0 814 0 771.2 0C728.3 0 685.7 0 642.8 0C600 0 557 0 514.2 0C471.3 0 428.7 0 385.8 0C343 0 300 0 257.2 0C214.3 0 171.7 0 128.8 0C86 0 43 0 21.5 0L0 0Z" fill="#f0c5ba"></path><path d="M0 127L21.5 131.2C43 135.3 86 143.7 128.8 142.2C171.7 140.7 214.3 129.3 257.2 130.7C300 132 343 146 385.8 141.5C428.7 137 471.3 114 514.2 113.7C557 113.3 600 135.7 642.8 143C685.7 150.3 728.3 142.7 771.2 141.7C814 140.7 857 146.3 878.5 149.2L900 152L900 0L878.5 0C857 0 814 0 771.2 0C728.3 0 685.7 0 642.8 0C600 0 557 0 514.2 0C471.3 0 428.7 0 385.8 0C343 0 300 0 257.2 0C214.3 0 171.7 0 128.8 0C86 0 43 0 21.5 0L0 0Z" fill="#d98c79"></path><path d="M0 88L21.5 92.2C43 96.3 86 104.7 128.8 106.5C171.7 108.3 214.3 103.7 257.2 102.7C300 101.7 343 104.3 385.8 100.7C428.7 97 471.3 87 514.2 88.7C557 90.3 600 103.7 642.8 106.3C685.7 109 728.3 101 771.2 95C814 89 857 85 878.5 83L900 81L900 0L878.5 0C857 0 814 0 771.2 0C728.3 0 685.7 0 642.8 0C600 0 557 0 514.2 0C471.3 0 428.7 0 385.8 0C343 0 300 0 257.2 0C214.3 0 171.7 0 128.8 0C86 0 43 0 21.5 0L0 0Z" fill="#bc533c"></path><path d="M0 56L21.5 53.3C43 50.7 86 45.3 128.8 42.8C171.7 40.3 214.3 40.7 257.2 40.7C300 40.7 343 40.3 385.8 44.5C428.7 48.7 471.3 57.3 514.2 55.2C557 53 600 40 642.8 39.8C685.7 39.7 728.3 52.3 771.2 56C814 59.7 857 54.3 878.5 51.7L900 49L900 0L878.5 0C857 0 814 0 771.2 0C728.3 0 685.7 0 642.8 0C600 0 557 0 514.2 0C471.3 0 428.7 0 385.8 0C343 0 300 0 257.2 0C214.3 0 171.7 0 128.8 0C86 0 43 0 21.5 0L0 0Z" fill="#990000"></path></svg>