<?xml version="1.0" standalone="no"?>
<!DOCTYPE svg PUBLIC "-//W3C//DTD SVG 20010904//EN"
 "http://www.w3.org/TR/2001/REC-SVG-20010904/DTD/svg10.dtd">
<svg version="1.0" xmlns="http://www.w3.org/2000/svg"
 width="425.000000pt" height="425.000000pt" viewBox="0 0 425.000000 425.000000"
 preserveAspectRatio="xMidYMid meet">
<metadata>
Created by potrace 1.14, written by Peter Selinger 2001-2017
</metadata>
<g transform="translate(0.000000,425.000000) scale(0.100000,-0.100000)"
fill="#000000" stroke="none">
<path d="M1930 3613 c0 -7 -10 -13 -23 -13 -13 0 -29 -6 -36 -12 -8 -7 -11 -8
-8 -2 3 6 0 11 -8 11 -8 0 -11 -5 -8 -10 4 -6 -3 -8 -15 -5 -12 4 -22 2 -22
-4 0 -6 -7 -7 -16 -4 -12 5 -15 2 -10 -10 5 -13 4 -14 -7 -6 -10 9 -23 7 -52
-8 -21 -11 -41 -17 -45 -15 -3 2 -12 -5 -20 -15 -8 -10 -17 -17 -21 -14 -4 2
-14 -2 -21 -10 -8 -7 -24 -17 -36 -20 -12 -4 -22 -12 -22 -17 0 -6 -4 -7 -10
-4 -5 3 -10 1 -10 -5 0 -6 -4 -8 -10 -5 -5 3 -10 -1 -10 -10 0 -9 -5 -13 -10
-10 -6 3 -13 -1 -16 -9 -3 -9 -12 -16 -20 -16 -8 0 -14 -7 -14 -15 0 -8 -3
-14 -7 -13 -11 3 -77 -33 -85 -46 -4 -6 -11 -11 -15 -11 -9 0 -31 -17 -63 -49
-10 -10 -23 -15 -29 -11 -6 3 -15 -4 -20 -17 -6 -13 -10 -18 -10 -13 -1 6 -10
-3 -21 -20 -11 -16 -20 -27 -20 -22 0 4 -8 -1 -18 -10 -11 -10 -17 -21 -15
-24 1 -4 -4 -9 -12 -13 -8 -3 -15 -12 -15 -19 0 -8 -9 -22 -20 -32 -24 -21
-70 -102 -70 -121 0 -8 -5 -14 -11 -14 -5 0 -7 -4 -4 -10 3 -5 1 -10 -6 -10
-7 0 -9 -3 -6 -7 4 -3 -5 -22 -20 -41 -15 -20 -21 -32 -15 -28 16 10 15 -5 -2
-29 -7 -11 -12 -28 -10 -37 1 -10 -2 -18 -7 -18 -6 0 -7 -4 -4 -10 3 -5 2 -10
-4 -10 -5 0 -8 -17 -7 -37 3 -60 -25 -74 -64 -33 -13 13 -14 13 -6 0 5 -8 -4
-2 -20 15 -16 16 -28 33 -27 37 2 5 -2 8 -8 8 -5 0 -8 4 -5 9 4 5 0 12 -6 14
-10 4 -10 6 0 6 10 1 10 5 -2 17 -9 8 -16 24 -16 35 0 10 -4 19 -10 19 -5 0
-10 6 -10 14 0 8 -7 17 -16 20 -23 9 -26 8 -18 -6 5 -8 1 -8 -10 1 -14 12 -19
12 -26 2 -6 -11 -9 -11 -13 0 -4 11 -6 11 -6 1 -1 -7 -6 -10 -13 -6 -7 4 -8 3
-4 -4 4 -8 -3 -16 -18 -22 -14 -5 -26 -12 -26 -15 0 -4 6 -3 13 1 6 3 0 -4
-14 -17 -14 -13 -29 -34 -33 -46 -4 -14 -12 -20 -22 -16 -7 3 -14 1 -14 -4 0
-5 -12 -8 -28 -5 -19 2 -33 -3 -46 -17 -11 -12 -24 -21 -29 -21 -14 0 -58 -50
-52 -60 3 -4 -2 -11 -11 -14 -9 -4 -14 -9 -11 -13 4 -3 1 -13 -6 -21 -14 -17
-19 -112 -6 -112 5 0 9 -7 9 -16 0 -8 4 -12 10 -9 5 3 20 -1 33 -10 13 -8 31
-13 39 -10 9 4 22 0 29 -8 8 -7 20 -12 27 -9 6 2 15 -3 18 -12 3 -8 12 -12 20
-9 8 3 14 0 14 -6 0 -6 7 -11 15 -11 8 0 14 -3 13 -7 -4 -11 59 -73 72 -73 6
0 9 -4 6 -9 -3 -5 2 -15 11 -22 14 -12 16 -12 8 1 -13 22 29 -14 117 -102 42
-42 78 -74 81 -72 2 2 37 -28 78 -68 40 -40 79 -73 87 -74 7 -1 41 -32 76 -68
35 -36 66 -63 69 -60 3 3 18 -8 35 -25 16 -17 32 -28 35 -24 4 3 7 -1 7 -11 0
-9 5 -14 10 -11 6 3 10 -1 10 -10 0 -9 5 -13 10 -10 6 3 10 1 10 -5 0 -6 4 -9
9 -6 5 3 11 -1 15 -9 3 -8 12 -15 19 -15 8 0 22 -9 32 -20 10 -11 24 -20 32
-20 7 0 13 -4 13 -10 0 -5 9 -10 20 -10 11 0 20 -4 20 -9 0 -5 10 -11 23 -13
15 -2 22 -10 22 -26 0 -12 7 -27 15 -32 8 -5 11 -10 5 -10 -5 0 -3 -5 6 -10
22 -13 15 -70 -11 -92 -12 -9 -21 -19 -20 -22 1 -21 -1 -26 -9 -21 -6 3 -8 -4
-6 -15 2 -13 -1 -20 -11 -20 -8 0 -12 -4 -9 -10 3 -5 1 -10 -4 -10 -6 0 -11
-7 -11 -15 0 -8 -8 -24 -17 -34 -10 -11 -24 -26 -31 -35 -6 -8 -19 -13 -27
-10 -8 4 -15 1 -15 -5 0 -6 -7 -11 -15 -11 -8 0 -25 -11 -39 -25 -13 -13 -30
-26 -37 -27 -20 -4 -37 -18 -95 -77 -29 -29 -57 -50 -62 -47 -6 3 -16 0 -24
-7 -13 -14 -21 -17 -39 -17 -5 0 -8 -4 -4 -9 3 -6 -4 -8 -15 -6 -13 3 -20 -1
-20 -12 0 -9 -3 -14 -6 -10 -7 7 -45 -30 -48 -47 -1 -6 -6 -18 -11 -26 -15
-23 -15 -43 -1 -60 15 -17 30 -52 27 -63 0 -4 6 -10 14 -13 8 -3 13 -10 10
-14 -4 -7 25 -40 87 -97 28 -26 104 -60 126 -57 24 4 99 70 90 80 -4 3 4 16
18 29 13 12 24 27 24 34 0 6 5 11 11 11 5 0 7 4 4 10 -4 6 8 10 29 10 36 0 79
26 70 42 -3 4 3 8 13 8 15 0 16 2 3 10 -13 9 -7 14 13 11 7 -1 11 15 8 31 0 5
7 8 16 9 13 0 14 2 4 6 -11 4 -8 10 10 25 13 11 17 17 9 13 -13 -6 -13 -5 0 7
9 7 14 21 12 31 -2 9 3 20 12 23 8 3 12 12 9 20 -3 8 1 14 8 14 12 0 12 2 1 9
-11 7 -11 9 1 14 9 3 13 16 12 32 -2 15 2 28 10 31 8 3 11 13 8 21 -4 10 -2
14 5 10 12 -8 55 47 44 57 -4 4 -2 6 3 4 6 -2 11 1 12 6 1 5 7 13 15 17 10 7
10 9 -2 9 -13 0 -13 1 0 10 13 8 13 10 0 10 -10 0 -11 3 -3 11 8 8 8 20 3 35
-9 23 -3 29 22 25 4 0 5 5 2 13 -3 8 0 17 5 21 6 3 8 11 5 17 -4 6 -2 8 3 5 6
-4 17 1 24 10 8 9 9 14 3 10 -6 -3 -11 0 -11 8 0 8 4 12 9 9 4 -3 11 2 14 10
3 9 10 13 15 10 5 -3 6 3 2 12 -4 11 -3 15 4 11 6 -4 14 -1 17 5 3 9 10 7 23
-7 24 -26 91 -28 117 -3 22 20 36 23 36 8 0 -6 6 -10 13 -9 6 1 27 1 46 0 28
-1 33 -4 28 -21 -3 -11 -1 -23 5 -26 9 -6 30 -50 32 -67 1 -4 6 -11 12 -15 6
-4 10 -15 8 -25 -1 -10 8 -30 20 -45 29 -35 40 -61 38 -95 0 -15 5 -39 13 -53
7 -15 11 -33 8 -40 -3 -8 1 -14 11 -14 9 0 16 -7 16 -15 0 -8 5 -16 10 -16 6
-1 15 -2 20 -3 6 0 10 -5 9 -10 0 -5 5 -12 12 -16 6 -4 12 -23 13 -41 0 -19 6
-40 13 -47 6 -7 10 -22 8 -33 -2 -12 2 -31 9 -42 7 -12 12 -33 12 -47 -1 -14
4 -31 11 -38 7 -8 11 -18 8 -23 -4 -5 1 -9 9 -9 10 0 13 -7 10 -25 -2 -14 0
-25 6 -25 5 0 10 -7 10 -15 0 -8 6 -15 13 -15 6 -1 22 -13 35 -29 17 -20 30
-27 48 -23 13 2 24 8 24 13 0 5 3 8 8 7 15 -3 67 28 95 57 16 17 31 28 34 25
3 -3 13 11 23 30 10 19 22 34 27 33 4 -2 8 2 8 7 0 6 5 11 10 12 6 0 15 8 22
17 8 10 12 12 13 4 0 -7 13 1 28 17 16 16 31 27 35 24 3 -3 8 4 12 15 4 12 11
18 17 15 7 -5 9 -1 5 9 -3 9 0 18 9 21 9 3 12 10 9 16 -3 5 -1 10 5 10 7 0 10
7 6 15 -3 8 0 15 5 15 6 0 9 9 6 20 -3 13 -1 18 6 13 6 -4 8 0 4 10 -3 9 -2
19 3 22 6 4 10 12 10 18 0 7 -4 6 -10 -3 -9 -14 -15 -7 -11 14 1 5 -5 6 -13 3
-9 -4 -17 2 -22 15 -5 16 -8 18 -15 7 -7 -11 -9 -11 -9 3 0 11 -5 15 -14 12
-8 -3 -17 0 -21 5 -3 6 -11 9 -16 6 -5 -4 -9 1 -9 9 0 9 -6 15 -12 14 -7 -2
-12 2 -11 9 2 7 -4 10 -12 7 -8 -4 -17 1 -21 10 -3 9 -13 16 -20 16 -8 0 -17
7 -20 15 -4 8 -10 12 -15 9 -5 -3 -9 0 -9 6 0 6 -15 24 -32 41 -19 16 -26 29
-18 29 10 0 8 5 -6 16 -10 8 -12 12 -4 8 13 -7 13 -5 2 9 -8 9 -11 21 -7 27 3
5 2 10 -3 10 -5 0 -12 9 -15 21 -3 12 -10 18 -15 15 -6 -3 -13 1 -16 10 -4 9
-14 14 -24 12 -9 -3 -27 6 -40 19 -12 13 -19 23 -15 23 4 0 -2 7 -14 15 -13 9
-20 22 -16 30 3 9 0 22 -7 30 -6 8 -9 19 -5 24 3 6 0 8 -8 5 -10 -4 -14 4 -13
28 1 30 4 33 31 33 17 0 36 6 44 13 11 11 15 11 22 0 6 -10 12 -9 24 7 9 11
14 13 10 5 -6 -13 -5 -13 7 0 7 8 22 16 32 18 11 2 31 11 45 20 14 9 33 18 43
18 35 3 39 4 34 12 -3 5 9 6 26 4 21 -3 29 -1 24 7 -4 7 0 11 12 11 11 0 25 6
31 14 7 8 21 12 31 9 12 -3 20 0 20 7 0 7 6 10 13 7 7 -3 24 1 38 9 13 7 34
13 47 14 12 0 22 4 22 10 0 5 10 8 22 6 14 -2 29 5 40 18 9 12 17 16 18 9 0
-15 45 -10 67 8 15 12 16 12 8 -1 -7 -12 -6 -13 6 -4 8 6 22 10 33 8 10 -1 30
2 45 8 38 16 249 16 255 1 3 -8 19 -11 45 -8 26 3 41 0 44 -9 3 -8 21 -12 50
-10 33 2 47 -2 51 -12 3 -9 10 -13 15 -10 5 3 14 0 20 -7 6 -8 26 -12 45 -11
23 2 36 -2 40 -12 3 -8 10 -13 15 -9 5 3 12 1 16 -5 3 -5 29 -10 57 -10 70 0
93 29 93 119 0 70 12 86 45 56 10 -9 24 -14 30 -10 7 4 17 1 22 -6 7 -11 11
-11 15 -1 2 6 9 10 14 6 5 -3 9 0 9 6 0 6 3 9 8 7 4 -3 13 1 20 9 7 8 10 14 6
14 -3 0 -1 7 6 15 7 8 9 15 4 15 -5 0 -2 5 6 10 12 8 12 10 1 10 -11 0 -11 3
-1 15 10 12 10 15 0 15 -10 0 -10 3 -1 14 9 11 9 16 0 21 -8 6 -8 10 2 16 10
6 9 12 -6 30 -12 13 -14 19 -5 14 11 -7 10 -2 -4 19 -10 16 -13 25 -7 22 6 -4
11 -2 11 3 0 6 -4 11 -10 11 -5 0 -10 10 -10 23 0 13 -6 29 -12 36 -10 11 -10
13 0 7 6 -4 12 -2 12 3 0 6 -4 11 -10 11 -5 0 -10 9 -10 21 0 13 -4 18 -12 13
-6 -4 -8 -3 -4 4 3 6 1 23 -5 39 -7 15 -13 35 -15 43 -2 8 -8 16 -13 18 -6 2
-11 15 -11 28 0 13 -4 24 -10 24 -5 0 -10 9 -10 19 0 11 -5 23 -10 26 -6 4 -8
11 -4 16 3 5 0 8 -6 7 -11 -3 -19 16 -22 50 -1 6 -8 12 -15 12 -8 0 -11 5 -8
10 3 6 1 10 -5 10 -6 0 -9 4 -5 9 3 6 -3 14 -12 20 -10 6 -14 11 -10 11 11 0
-25 60 -36 60 -4 0 -6 4 -3 8 3 5 -6 20 -19 34 -13 14 -21 28 -18 32 3 3 -2 8
-11 12 -9 3 -16 13 -16 21 0 8 -5 11 -12 7 -7 -5 -8 -3 -3 6 5 8 -1 20 -16 32
-13 11 -17 17 -9 13 8 -4 6 1 -4 9 -11 9 -17 16 -13 16 4 0 -1 8 -10 18 -10
11 -21 17 -25 15 -5 -2 -8 5 -8 17 0 12 -4 18 -10 15 -5 -3 -10 -1 -10 5 0 7
-13 24 -30 40 -16 15 -26 30 -23 34 3 3 -1 6 -10 6 -8 0 -19 9 -22 21 -4 13
-12 18 -21 15 -8 -3 -13 -2 -10 3 3 5 -5 17 -19 27 -13 10 -21 22 -19 26 3 5
2 8 -3 7 -12 -4 -63 23 -63 33 0 4 -7 8 -15 8 -8 0 -15 5 -15 10 0 6 -8 10
-17 8 -12 -2 -17 2 -15 12 3 12 1 12 -9 3 -9 -9 -17 -9 -32 -2 -15 9 -18 8
-11 -3 6 -11 5 -11 -9 1 -15 12 -21 9 -18 -11 0 -4 -8 -5 -19 -3 -13 3 -17 -1
-13 -11 3 -8 -1 -14 -8 -14 -7 0 -9 -3 -6 -7 4 -3 1 -13 -6 -21 -10 -13 -9
-14 2 -7 11 6 13 4 8 -9 -4 -10 -7 -20 -7 -22 0 -3 -5 -2 -11 2 -8 4 -8 1 -2
-12 8 -17 9 -25 4 -51 -1 -5 -5 -2 -9 5 -5 7 -30 13 -58 14 -84 1 -96 -1 -101
-22 -3 -11 -9 -17 -14 -14 -10 6 -10 6 -12 -49 -1 -20 3 -37 8 -37 7 0 7 -3 0
-8 -5 -4 -10 -20 -10 -37 0 -16 5 -33 10 -37 7 -5 7 -8 0 -8 -6 0 -10 -35 -9
-90 2 -85 -5 -115 -22 -89 -4 8 -3 9 4 5 7 -4 12 -2 12 3 0 6 -4 11 -9 11 -5
0 -7 14 -6 30 1 17 -2 30 -9 30 -6 0 -4 5 4 10 13 9 13 10 0 10 -12 0 -12 2
-1 9 9 6 10 11 2 15 -6 4 -9 11 -6 16 3 5 1 11 -5 15 -7 4 -7 12 0 26 7 13 7
19 0 19 -5 0 -10 9 -10 19 0 11 -4 23 -10 26 -5 3 -10 11 -10 16 0 6 4 8 10 4
5 -3 3 7 -5 21 -8 15 -12 31 -9 36 3 4 0 8 -5 8 -6 0 -11 8 -11 19 0 10 -7 24
-15 31 -8 6 -14 15 -13 18 4 14 -14 52 -23 52 -6 0 -7 5 -4 10 3 6 1 10 -5 10
-6 0 -8 5 -5 10 3 6 1 10 -4 10 -6 0 -11 6 -11 14 0 8 -7 17 -16 20 -8 3 -12
10 -9 16 3 5 1 10 -4 10 -6 0 -11 7 -11 16 0 8 -4 12 -10 9 -5 -3 -10 0 -10 7
0 7 -10 21 -23 33 -13 11 -16 16 -8 10 11 -8 13 -7 7 3 -4 7 -19 17 -32 22
-13 5 -24 16 -24 23 0 8 -12 20 -26 27 -14 8 -30 22 -35 32 -5 10 -16 18 -24
18 -8 0 -15 5 -15 12 0 6 -3 8 -7 5 -3 -4 -13 2 -20 13 -8 11 -19 18 -24 15
-5 -4 -9 -1 -9 5 0 6 -4 8 -10 5 -5 -3 -10 -1 -10 5 0 6 -4 8 -10 5 -5 -3 -10
2 -10 11 0 10 -3 15 -6 11 -4 -3 -28 5 -54 18 -26 13 -50 21 -54 18 -3 -4 -6
-1 -6 5 0 7 -9 12 -20 12 -11 0 -20 6 -20 13 0 8 -4 7 -10 -3 -8 -12 -10 -12
-10 -1 0 9 -8 12 -25 9 -13 -3 -24 -2 -23 1 2 18 -4 22 -17 11 -8 -7 -15 -8
-15 -3 0 9 -13 13 -53 14 -10 0 -15 5 -11 12 5 8 3 8 -7 0 -16 -16 -33 -17
-23 -2 4 7 -1 7 -16 -1 -12 -7 -20 -8 -17 -3 8 13 -113 11 -132 -1 -10 -6 -12
-6 -7 2 6 10 -19 11 -44 2 -16 -6 -36 -4 -42 5 -5 6 -8 5 -8 -2z m80 -430 c14
-6 28 -9 33 -6 14 9 167 -52 175 -69 2 -5 12 -8 23 -8 10 0 19 -4 19 -8 0 -5
12 -15 28 -23 36 -18 162 -146 162 -165 0 -8 5 -12 10 -9 6 3 10 -1 10 -10 0
-19 25 -47 34 -38 3 4 6 -1 6 -10 0 -9 5 -17 10 -17 6 0 9 -3 8 -7 -4 -14 14
-57 31 -77 11 -13 12 -17 2 -11 -11 6 -12 5 -5 -6 5 -8 9 -21 10 -29 0 -8 4
-23 9 -34 11 -24 11 -238 0 -255 -4 -7 -9 -27 -10 -43 -2 -17 -7 -33 -12 -37
-6 -3 -9 -17 -8 -29 1 -13 -4 -26 -12 -29 -8 -3 -12 -12 -9 -20 3 -7 -1 -16
-9 -19 -8 -4 -12 -10 -9 -15 8 -14 -6 -50 -17 -43 -5 3 -9 2 -8 -3 3 -19 -2
-33 -18 -49 -10 -10 -18 -20 -18 -23 -1 -10 -24 -46 -25 -37 0 4 -9 -2 -20
-15 -12 -15 -19 -19 -20 -10 0 8 -6 11 -16 7 -8 -3 -13 -2 -10 3 7 11 -18 33
-27 24 -4 -3 -7 -1 -7 5 0 6 -7 9 -15 6 -8 -4 -12 -11 -8 -17 3 -6 1 -7 -5 -3
-6 4 -20 -2 -32 -14 -21 -21 -40 -26 -40 -10 0 17 -72 4 -87 -16 -10 -13 -16
-15 -21 -7 -11 18 -60 34 -67 23 -4 -6 -20 -10 -36 -10 -18 0 -28 4 -24 10 6
9 -8 15 -29 11 -5 -1 -13 4 -17 11 -7 11 -9 10 -9 -1 0 -8 -6 -11 -16 -7 -8 3
-13 2 -10 -3 3 -5 -2 -15 -12 -22 -9 -7 -14 -9 -10 -5 4 5 0 15 -10 23 -11 9
-11 12 -2 7 12 -5 13 -4 3 6 -7 7 -20 14 -30 15 -10 0 -25 5 -32 10 -10 5 -12
4 -7 -3 4 -7 1 -12 -8 -12 -9 0 -16 -4 -16 -9 0 -5 -11 -11 -24 -13 -19 -4
-23 -1 -18 10 4 11 1 14 -10 9 -10 -3 -19 0 -22 9 -3 8 -12 14 -21 14 -8 0
-15 5 -15 11 0 5 -4 7 -10 4 -5 -3 -10 1 -10 9 0 9 -4 15 -9 13 -5 -1 -23 13
-40 31 -17 17 -35 32 -39 32 -7 0 -51 63 -54 77 0 5 -8 13 -16 19 -9 7 -12 16
-7 24 5 9 4 11 -3 6 -7 -4 -12 -1 -12 9 0 9 -4 13 -10 10 -6 -4 -10 5 -10 19
0 14 -4 26 -10 26 -5 0 -9 6 -7 13 1 6 -4 11 -12 9 -12 -3 -12 0 -1 12 7 9 8
16 3 16 -5 0 -10 6 -10 13 -1 22 -8 42 -18 49 -6 5 -5 8 3 8 7 0 10 5 7 10 -4
6 -10 8 -13 6 -4 -2 -7 13 -6 35 0 22 -4 39 -10 39 -7 0 -7 3 -1 8 13 9 17 32
6 32 -10 0 -8 51 3 68 4 7 1 12 -6 12 -9 0 -9 3 2 10 11 7 11 10 2 10 -9 0
-10 5 -4 18 5 9 8 27 7 40 -1 12 2 22 7 22 5 0 6 5 3 10 -3 6 0 10 7 10 10 0
10 2 -1 9 -9 6 -10 11 -2 15 6 4 9 12 6 17 -4 5 -1 9 6 9 7 0 9 3 6 7 -4 3 -2
12 4 20 6 7 8 13 4 13 -4 0 0 12 10 26 9 15 12 23 6 20 -7 -5 -9 -1 -5 8 3 9
10 14 14 11 4 -3 11 2 14 11 4 10 2 13 -7 9 -6 -4 -4 0 6 8 9 8 17 19 17 26 0
6 5 11 10 11 6 0 10 6 10 14 0 8 9 18 20 21 11 4 18 10 16 14 -5 8 50 44 74
48 8 1 16 7 18 12 2 6 17 11 33 11 16 0 29 5 29 11 0 6 9 9 20 6 11 -3 20 0
20 6 0 9 2 9 8 0 6 -9 13 -9 32 1 30 15 203 15 240 -1z m-1335 -593 c4 -7 13
-6 27 1 15 8 19 8 14 0 -4 -6 -2 -11 4 -11 6 0 8 -5 4 -12 -4 -6 -3 -8 4 -4
13 8 74 -49 64 -60 -4 -4 -2 -4 5 0 6 3 14 2 18 -4 4 -6 11 -7 17 -4 6 4 8 3
5 -3 -3 -5 3 -15 13 -23 10 -8 16 -18 13 -23 -3 -6 -1 -7 4 -4 12 8 47 -20 56
-45 3 -10 2 -20 -3 -23 -6 -4 -10 1 -10 10 0 11 -5 15 -14 12 -9 -4 -27 7 -44
26 -16 18 -35 33 -43 35 -8 2 -23 12 -34 21 -11 10 -26 16 -34 13 -8 -2 -11 0
-8 6 4 5 0 15 -8 22 -8 7 -15 10 -15 6 0 -3 -9 3 -20 14 -11 11 -25 20 -31 20
-5 0 -7 5 -3 11 3 6 0 15 -7 20 -11 7 -11 9 3 9 9 0 20 -5 23 -10z m1620
-1032 c-2 -10 2 -18 8 -18 7 0 6 -4 -3 -10 -13 -8 -13 -10 2 -10 9 0 20 -5 24
-12 4 -6 3 -8 -4 -5 -6 5 -6 -2 1 -18 7 -14 15 -25 20 -25 4 0 7 -9 7 -21 0
-11 5 -17 10 -14 6 4 10 -5 10 -20 0 -15 4 -24 10 -20 10 6 12 -1 12 -68 0
-20 4 -40 9 -43 5 -3 9 -15 9 -26 0 -12 3 -19 6 -15 8 8 44 -25 38 -35 -3 -4
3 -5 12 -1 12 4 15 3 10 -5 -4 -7 -1 -12 9 -12 9 0 13 -5 10 -10 -4 -6 -3 -16
2 -23 5 -7 10 -25 12 -42 2 -16 7 -32 11 -35 4 -3 2 -10 -5 -17 -10 -9 -21 -4
-49 23 -20 19 -36 41 -36 49 0 8 -4 15 -9 15 -5 0 -8 12 -8 26 0 15 -4 29 -9
33 -5 3 -10 13 -12 21 -2 8 -10 19 -18 23 -8 5 -11 13 -8 19 4 7 2 8 -4 4 -7
-4 -12 -2 -12 4 0 7 -8 9 -19 5 -21 -6 -76 39 -66 55 3 4 -2 10 -10 14 -8 3
-15 12 -15 20 0 8 -7 22 -16 30 -8 9 -10 16 -4 16 7 0 5 10 -4 29 -9 16 -12
31 -9 35 4 3 -1 6 -10 6 -9 0 -17 5 -17 10 0 9 14 14 33 11 6 -1 25 34 32 62
2 4 3 9 4 11 0 2 12 3 25 2 17 -1 23 -6 21 -18z"/>
<path d="M293 1613 c-8 -35 -12 -38 -48 -43 l-39 -5 -32 -135 c-54 -228 -83
-354 -88 -385 -3 -16 -10 -46 -16 -65 -17 -60 -17 -60 69 -60 l79 0 7 40 c7
40 7 40 50 40 42 0 44 2 55 38 5 20 13 55 17 77 l7 40 11 -40 12 -40 59 -3 59
-3 25 41 c19 31 31 40 52 40 17 0 34 10 48 28 16 21 20 23 16 7 -19 -75 -56
-239 -56 -251 0 -11 18 -14 80 -14 l79 0 12 40 c12 39 14 40 56 40 23 0 43 2
43 5 0 6 140 606 146 628 5 15 -4 17 -103 17 l-108 0 -25 -40 c-16 -26 -32
-40 -46 -40 -16 0 -38 -25 -85 -96 l-63 -97 -30 137 -30 136 -102 0 -102 0 -9
-37z"/>
<path d="M3233 1613 c-8 -35 -12 -38 -48 -43 l-40 -5 -57 -245 c-31 -135 -59
-258 -62 -275 -3 -16 -10 -46 -16 -65 -18 -62 -24 -60 148 -60 227 0 315 21
404 98 18 16 50 38 70 51 115 69 190 240 167 381 -12 74 -52 127 -125 165 -57
30 -59 30 -245 33 l-187 4 -9 -39z m207 -179 c81 -33 104 -122 61 -247 -15
-45 -32 -53 -131 -63 l-73 -7 6 24 c4 13 21 88 39 166 21 89 38 143 45 143 7
0 31 -7 53 -16z"/>
</g>
</svg>
