<svg id="visual" viewBox="0 0 900 600" width="900" height="600" xmlns="http://www.w3.org/2000/svg" xmlns:xlink="http://www.w3.org/1999/xlink" version="1.1"><rect x="0" y="0" width="900" height="600" fill="#ffffff"></rect><path d="M0 369L21.5 367.2C43 365.3 86 361.7 128.8 369.7C171.7 377.7 214.3 397.3 257.2 409.2C300 421 343 425 385.8 425C428.7 425 471.3 421 514.2 412.2C557 403.3 600 389.7 642.8 393.8C685.7 398 728.3 420 771.2 422.8C814 425.7 857 409.3 878.5 401.2L900 393L900 601L878.5 601C857 601 814 601 771.2 601C728.3 601 685.7 601 642.8 601C600 601 557 601 514.2 601C471.3 601 428.7 601 385.8 601C343 601 300 601 257.2 601C214.3 601 171.7 601 128.8 601C86 601 43 601 21.5 601L0 601Z" fill="#ffffff"></path><path d="M0 464L21.5 457.5C43 451 86 438 128.8 433.7C171.7 429.3 214.3 433.7 257.2 432.8C300 432 343 426 385.8 424.8C428.7 423.7 471.3 427.3 514.2 436.7C557 446 600 461 642.8 466.3C685.7 471.7 728.3 467.3 771.2 464.8C814 462.3 857 461.7 878.5 461.3L900 461L900 601L878.5 601C857 601 814 601 771.2 601C728.3 601 685.7 601 642.8 601C600 601 557 601 514.2 601C471.3 601 428.7 601 385.8 601C343 601 300 601 257.2 601C214.3 601 171.7 601 128.8 601C86 601 43 601 21.5 601L0 601Z" fill="#f0c5ba"></path><path d="M0 471L21.5 466.8C43 462.7 86 454.3 128.8 455.8C171.7 457.3 214.3 468.7 257.2 467.3C300 466 343 452 385.8 456.5C428.7 461 471.3 484 514.2 484.3C557 484.7 600 462.3 642.8 455C685.7 447.7 728.3 455.3 771.2 456.3C814 457.3 857 451.7 878.5 448.8L900 446L900 601L878.5 601C857 601 814 601 771.2 601C728.3 601 685.7 601 642.8 601C600 601 557 601 514.2 601C471.3 601 428.7 601 385.8 601C343 601 300 601 257.2 601C214.3 601 171.7 601 128.8 601C86 601 43 601 21.5 601L0 601Z" fill="#d98c79"></path><path d="M0 510L21.5 505.8C43 501.7 86 493.3 128.8 491.5C171.7 489.7 214.3 494.3 257.2 495.3C300 496.3 343 493.7 385.8 497.3C428.7 501 471.3 511 514.2 509.3C557 507.7 600 494.3 642.8 491.7C685.7 489 728.3 497 771.2 503C814 509 857 513 878.5 515L900 517L900 601L878.5 601C857 601 814 601 771.2 601C728.3 601 685.7 601 642.8 601C600 601 557 601 514.2 601C471.3 601 428.7 601 385.8 601C343 601 300 601 257.2 601C214.3 601 171.7 601 128.8 601C86 601 43 601 21.5 601L0 601Z" fill="#bc533c"></path><path d="M0 542L21.5 544.7C43 547.3 86 552.7 128.8 555.2C171.7 557.7 214.3 557.3 257.2 557.3C300 557.3 343 557.7 385.8 553.5C428.7 549.3 471.3 540.7 514.2 542.8C557 545 600 558 642.8 558.2C685.7 558.3 728.3 545.7 771.2 542C814 538.3 857 543.7 878.5 546.3L900 549L900 601L878.5 601C857 601 814 601 771.2 601C728.3 601 685.7 601 642.8 601C600 601 557 601 514.2 601C471.3 601 428.7 601 385.8 601C343 601 300 601 257.2 601C214.3 601 171.7 601 128.8 601C86 601 43 601 21.5 601L0 601Z" fill="#990000"></path></svg>