<svg id="visual" viewBox="0 0 900 600" width="900" height="600" xmlns="http://www.w3.org/2000/svg" xmlns:xlink="http://www.w3.org/1999/xlink" version="1.1"><rect x="0" y="0" width="900" height="600" fill="#ffffff"></rect><path d="M0 413L18.8 421.5C37.7 430 75.3 447 112.8 450.5C150.3 454 187.7 444 225.2 446.3C262.7 448.7 300.3 463.3 337.8 464.2C375.3 465 412.7 452 450.2 450.7C487.7 449.3 525.3 459.7 562.8 458.2C600.3 456.7 637.7 443.3 675.2 432.3C712.7 421.3 750.3 412.7 787.8 408.2C825.3 403.7 862.7 403.3 881.3 403.2L900 403L900 601L881.3 601C862.7 601 825.3 601 787.8 601C750.3 601 712.7 601 675.2 601C637.7 601 600.3 601 562.8 601C525.3 601 487.7 601 450.2 601C412.7 601 375.3 601 337.8 601C300.3 601 262.7 601 225.2 601C187.7 601 150.3 601 112.8 601C75.3 601 37.7 601 18.8 601L0 601Z" fill="#fdca90"></path><path d="M0 445L18.8 443.7C37.7 442.3 75.3 439.7 112.8 438.3C150.3 437 187.7 437 225.2 443.5C262.7 450 300.3 463 337.8 468.8C375.3 474.7 412.7 473.3 450.2 477.5C487.7 481.7 525.3 491.3 562.8 488.3C600.3 485.3 637.7 469.7 675.2 466.2C712.7 462.7 750.3 471.3 787.8 472.7C825.3 474 862.7 468 881.3 465L900 462L900 601L881.3 601C862.7 601 825.3 601 787.8 601C750.3 601 712.7 601 675.2 601C637.7 601 600.3 601 562.8 601C525.3 601 487.7 601 450.2 601C412.7 601 375.3 601 337.8 601C300.3 601 262.7 601 225.2 601C187.7 601 150.3 601 112.8 601C75.3 601 37.7 601 18.8 601L0 601Z" fill="#e5a067"></path><path d="M0 499L18.8 496.7C37.7 494.3 75.3 489.7 112.8 485.7C150.3 481.7 187.7 478.3 225.2 482.3C262.7 486.3 300.3 497.7 337.8 503.8C375.3 510 412.7 511 450.2 513.8C487.7 516.7 525.3 521.3 562.8 520.3C600.3 519.3 637.7 512.7 675.2 512.2C712.7 511.7 750.3 517.3 787.8 511.3C825.3 505.3 862.7 487.7 881.3 478.8L900 470L900 601L881.3 601C862.7 601 825.3 601 787.8 601C750.3 601 712.7 601 675.2 601C637.7 601 600.3 601 562.8 601C525.3 601 487.7 601 450.2 601C412.7 601 375.3 601 337.8 601C300.3 601 262.7 601 225.2 601C187.7 601 150.3 601 112.8 601C75.3 601 37.7 601 18.8 601L0 601Z" fill="#cc7543"></path><path d="M0 509L18.8 512.7C37.7 516.3 75.3 523.7 112.8 525.8C150.3 528 187.7 525 225.2 526.3C262.7 527.7 300.3 533.3 337.8 535.2C375.3 537 412.7 535 450.2 532.8C487.7 530.7 525.3 528.3 562.8 523.5C600.3 518.7 637.7 511.3 675.2 507.8C712.7 504.3 750.3 504.7 787.8 510.5C825.3 516.3 862.7 527.7 881.3 533.3L900 539L900 601L881.3 601C862.7 601 825.3 601 787.8 601C750.3 601 712.7 601 675.2 601C637.7 601 600.3 601 562.8 601C525.3 601 487.7 601 450.2 601C412.7 601 375.3 601 337.8 601C300.3 601 262.7 601 225.2 601C187.7 601 150.3 601 112.8 601C75.3 601 37.7 601 18.8 601L0 601Z" fill="#b24926"></path><path d="M0 548L18.8 550.7C37.7 553.3 75.3 558.7 112.8 561.7C150.3 564.7 187.7 565.3 225.2 565C262.7 564.7 300.3 563.3 337.8 562C375.3 560.7 412.7 559.3 450.2 559.8C487.7 560.3 525.3 562.7 562.8 560.8C600.3 559 637.7 553 675.2 554C712.7 555 750.3 563 787.8 566.7C825.3 570.3 862.7 569.7 881.3 569.3L900 569L900 601L881.3 601C862.7 601 825.3 601 787.8 601C750.3 601 712.7 601 675.2 601C637.7 601 600.3 601 562.8 601C525.3 601 487.7 601 450.2 601C412.7 601 375.3 601 337.8 601C300.3 601 262.7 601 225.2 601C187.7 601 150.3 601 112.8 601C75.3 601 37.7 601 18.8 601L0 601Z" fill="#970c10"></path></svg>