<svg id="visual" viewBox="0 0 900 600" width="900" height="600" xmlns="http://www.w3.org/2000/svg" xmlns:xlink="http://www.w3.org/1999/xlink" version="1.1"><rect x="0" y="0" width="900" height="600" fill="#ffffff"></rect><path d="M0 185L18.8 176.5C37.7 168 75.3 151 112.8 147.5C150.3 144 187.7 154 225.2 151.7C262.7 149.3 300.3 134.7 337.8 133.8C375.3 133 412.7 146 450.2 147.3C487.7 148.7 525.3 138.3 562.8 139.8C600.3 141.3 637.7 154.7 675.2 165.7C712.7 176.7 750.3 185.3 787.8 189.8C825.3 194.3 862.7 194.7 881.3 194.8L900 195L900 0L881.3 0C862.7 0 825.3 0 787.8 0C750.3 0 712.7 0 675.2 0C637.7 0 600.3 0 562.8 0C525.3 0 487.7 0 450.2 0C412.7 0 375.3 0 337.8 0C300.3 0 262.7 0 225.2 0C187.7 0 150.3 0 112.8 0C75.3 0 37.7 0 18.8 0L0 0Z" fill="#fdca90"></path><path d="M0 153L18.8 154.3C37.7 155.7 75.3 158.3 112.8 159.7C150.3 161 187.7 161 225.2 154.5C262.7 148 300.3 135 337.8 129.2C375.3 123.3 412.7 124.7 450.2 120.5C487.7 116.3 525.3 106.7 562.8 109.7C600.3 112.7 637.7 128.3 675.2 131.8C712.7 135.3 750.3 126.7 787.8 125.3C825.3 124 862.7 130 881.3 133L900 136L900 0L881.3 0C862.7 0 825.3 0 787.8 0C750.3 0 712.7 0 675.2 0C637.7 0 600.3 0 562.8 0C525.3 0 487.7 0 450.2 0C412.7 0 375.3 0 337.8 0C300.3 0 262.7 0 225.2 0C187.7 0 150.3 0 112.8 0C75.3 0 37.7 0 18.8 0L0 0Z" fill="#e5a067"></path><path d="M0 99L18.8 101.3C37.7 103.7 75.3 108.3 112.8 112.3C150.3 116.3 187.7 119.7 225.2 115.7C262.7 111.7 300.3 100.3 337.8 94.2C375.3 88 412.7 87 450.2 84.2C487.7 81.3 525.3 76.7 562.8 77.7C600.3 78.7 637.7 85.3 675.2 85.8C712.7 86.3 750.3 80.7 787.8 86.7C825.3 92.7 862.7 110.3 881.3 119.2L900 128L900 0L881.3 0C862.7 0 825.3 0 787.8 0C750.3 0 712.7 0 675.2 0C637.7 0 600.3 0 562.8 0C525.3 0 487.7 0 450.2 0C412.7 0 375.3 0 337.8 0C300.3 0 262.7 0 225.2 0C187.7 0 150.3 0 112.8 0C75.3 0 37.7 0 18.8 0L0 0Z" fill="#cc7543"></path><path d="M0 89L18.8 85.3C37.7 81.7 75.3 74.3 112.8 72.2C150.3 70 187.7 73 225.2 71.7C262.7 70.3 300.3 64.7 337.8 62.8C375.3 61 412.7 63 450.2 65.2C487.7 67.3 525.3 69.7 562.8 74.5C600.3 79.3 637.7 86.7 675.2 90.2C712.7 93.7 750.3 93.3 787.8 87.5C825.3 81.7 862.7 70.3 881.3 64.7L900 59L900 0L881.3 0C862.7 0 825.3 0 787.8 0C750.3 0 712.7 0 675.2 0C637.7 0 600.3 0 562.8 0C525.3 0 487.7 0 450.2 0C412.7 0 375.3 0 337.8 0C300.3 0 262.7 0 225.2 0C187.7 0 150.3 0 112.8 0C75.3 0 37.7 0 18.8 0L0 0Z" fill="#b24926"></path><path d="M0 50L18.8 47.3C37.7 44.7 75.3 39.3 112.8 36.3C150.3 33.3 187.7 32.7 225.2 33C262.7 33.3 300.3 34.7 337.8 36C375.3 37.3 412.7 38.7 450.2 38.2C487.7 37.7 525.3 35.3 562.8 37.2C600.3 39 637.7 45 675.2 44C712.7 43 750.3 35 787.8 31.3C825.3 27.7 862.7 28.3 881.3 28.7L900 29L900 0L881.3 0C862.7 0 825.3 0 787.8 0C750.3 0 712.7 0 675.2 0C637.7 0 600.3 0 562.8 0C525.3 0 487.7 0 450.2 0C412.7 0 375.3 0 337.8 0C300.3 0 262.7 0 225.2 0C187.7 0 150.3 0 112.8 0C75.3 0 37.7 0 18.8 0L0 0Z" fill="#970c10"></path></svg>