<svg id="visual" viewBox="0 0 900 600" width="900" height="600" xmlns="http://www.w3.org/2000/svg" xmlns:xlink="http://www.w3.org/1999/xlink" version="1.1"><rect x="0" y="0" width="900" height="600" fill="#ffffff"></rect><path d="M0 216L21.5 212.5C43 209 86 202 128.8 202.8C171.7 203.7 214.3 212.3 257.2 207.7C300 203 343 185 385.8 177.8C428.7 170.7 471.3 174.3 514.2 181.5C557 188.7 600 199.3 642.8 195.5C685.7 191.7 728.3 173.3 771.2 171.8C814 170.3 857 185.7 878.5 193.3L900 201L900 0L878.5 0C857 0 814 0 771.2 0C728.3 0 685.7 0 642.8 0C600 0 557 0 514.2 0C471.3 0 428.7 0 385.8 0C343 0 300 0 257.2 0C214.3 0 171.7 0 128.8 0C86 0 43 0 21.5 0L0 0Z" fill="#fdca90"></path><path d="M0 147L21.5 151.3C43 155.7 86 164.3 128.8 162.3C171.7 160.3 214.3 147.7 257.2 145.2C300 142.7 343 150.3 385.8 159.2C428.7 168 471.3 178 514.2 172.2C557 166.3 600 144.7 642.8 141.7C685.7 138.7 728.3 154.3 771.2 161.8C814 169.3 857 168.7 878.5 168.3L900 168L900 0L878.5 0C857 0 814 0 771.2 0C728.3 0 685.7 0 642.8 0C600 0 557 0 514.2 0C471.3 0 428.7 0 385.8 0C343 0 300 0 257.2 0C214.3 0 171.7 0 128.8 0C86 0 43 0 21.5 0L0 0Z" fill="#dd9890"></path><path d="M0 158L21.5 146.2C43 134.3 86 110.7 128.8 105.8C171.7 101 214.3 115 257.2 124.8C300 134.7 343 140.3 385.8 145.2C428.7 150 471.3 154 514.2 155.2C557 156.3 600 154.7 642.8 146.5C685.7 138.3 728.3 123.7 771.2 118C814 112.3 857 115.7 878.5 117.3L900 119L900 0L878.5 0C857 0 814 0 771.2 0C728.3 0 685.7 0 642.8 0C600 0 557 0 514.2 0C471.3 0 428.7 0 385.8 0C343 0 300 0 257.2 0C214.3 0 171.7 0 128.8 0C86 0 43 0 21.5 0L0 0Z" fill="#a17689"></path><path d="M0 78L21.5 76.8C43 75.7 86 73.3 128.8 76.2C171.7 79 214.3 87 257.2 92.5C300 98 343 101 385.8 101.3C428.7 101.7 471.3 99.3 514.2 101.5C557 103.7 600 110.3 642.8 106.2C685.7 102 728.3 87 771.2 80.7C814 74.3 857 76.7 878.5 77.8L900 79L900 0L878.5 0C857 0 814 0 771.2 0C728.3 0 685.7 0 642.8 0C600 0 557 0 514.2 0C471.3 0 428.7 0 385.8 0C343 0 300 0 257.2 0C214.3 0 171.7 0 128.8 0C86 0 43 0 21.5 0L0 0Z" fill="#615a6b"></path><path d="M0 37L21.5 38C43 39 86 41 128.8 41.2C171.7 41.3 214.3 39.7 257.2 44.5C300 49.3 343 60.7 385.8 62.2C428.7 63.7 471.3 55.3 514.2 54.7C557 54 600 61 642.8 63.3C685.7 65.7 728.3 63.3 771.2 63.7C814 64 857 67 878.5 68.5L900 70L900 0L878.5 0C857 0 814 0 771.2 0C728.3 0 685.7 0 642.8 0C600 0 557 0 514.2 0C471.3 0 428.7 0 385.8 0C343 0 300 0 257.2 0C214.3 0 171.7 0 128.8 0C86 0 43 0 21.5 0L0 0Z" fill="#383a3d"></path></svg>