<svg id="visual" viewBox="0 0 2000 1000" width="2000" height="1000" xmlns="http://www.w3.org/2000/svg" xmlns:xlink="http://www.w3.org/1999/xlink" version="1.1"><rect x="0" y="0" width="2000" height="1000" fill="#ffffff"></rect><path d="M0 653L47.7 657.3C95.3 661.7 190.7 670.3 285.8 677.8C381 685.3 476 691.7 571.2 684C666.3 676.3 761.7 654.7 857 643.7C952.3 632.7 1047.7 632.3 1143 641.7C1238.3 651 1333.7 670 1428.8 687.3C1524 704.7 1619 720.3 1714.2 719.2C1809.3 718 1904.7 700 1952.3 691L2000 682L2000 1001L1952.3 1001C1904.7 1001 1809.3 1001 1714.2 1001C1619 1001 1524 1001 1428.8 1001C1333.7 1001 1238.3 1001 1143 1001C1047.7 1001 952.3 1001 857 1001C761.7 1001 666.3 1001 571.2 1001C476 1001 381 1001 285.8 1001C190.7 1001 95.3 1001 47.7 1001L0 1001Z" fill="#fdca90"></path><path d="M0 671L47.7 678.2C95.3 685.3 190.7 699.7 285.8 715.7C381 731.7 476 749.3 571.2 751C666.3 752.7 761.7 738.3 857 722.2C952.3 706 1047.7 688 1143 692.3C1238.3 696.7 1333.7 723.3 1428.8 730.2C1524 737 1619 724 1714.2 730.8C1809.3 737.7 1904.7 764.3 1952.3 777.7L2000 791L2000 1001L1952.3 1001C1904.7 1001 1809.3 1001 1714.2 1001C1619 1001 1524 1001 1428.8 1001C1333.7 1001 1238.3 1001 1143 1001C1047.7 1001 952.3 1001 857 1001C761.7 1001 666.3 1001 571.2 1001C476 1001 381 1001 285.8 1001C190.7 1001 95.3 1001 47.7 1001L0 1001Z" fill="#e6a18f"></path><path d="M0 724L47.7 723C95.3 722 190.7 720 285.8 723.8C381 727.7 476 737.3 571.2 745.8C666.3 754.3 761.7 761.7 857 770.7C952.3 779.7 1047.7 790.3 1143 782.2C1238.3 774 1333.7 747 1428.8 752.2C1524 757.3 1619 794.7 1714.2 795.2C1809.3 795.7 1904.7 759.3 1952.3 741.2L2000 723L2000 1001L1952.3 1001C1904.7 1001 1809.3 1001 1714.2 1001C1619 1001 1524 1001 1428.8 1001C1333.7 1001 1238.3 1001 1143 1001C1047.7 1001 952.3 1001 857 1001C761.7 1001 666.3 1001 571.2 1001C476 1001 381 1001 285.8 1001C190.7 1001 95.3 1001 47.7 1001L0 1001Z" fill="#bb828e"></path><path d="M0 775L47.7 784.7C95.3 794.3 190.7 813.7 285.8 822.8C381 832 476 831 571.2 824.8C666.3 818.7 761.7 807.3 857 805.5C952.3 803.7 1047.7 811.3 1143 817.5C1238.3 823.7 1333.7 828.3 1428.8 819.3C1524 810.3 1619 787.7 1714.2 780.2C1809.3 772.7 1904.7 780.3 1952.3 784.2L2000 788L2000 1001L1952.3 1001C1904.7 1001 1809.3 1001 1714.2 1001C1619 1001 1524 1001 1428.8 1001C1333.7 1001 1238.3 1001 1143 1001C1047.7 1001 952.3 1001 857 1001C761.7 1001 666.3 1001 571.2 1001C476 1001 381 1001 285.8 1001C190.7 1001 95.3 1001 47.7 1001L0 1001Z" fill="#866b80"></path><path d="M0 900L47.7 887.5C95.3 875 190.7 850 285.8 840.2C381 830.3 476 835.7 571.2 841.2C666.3 846.7 761.7 852.3 857 857.7C952.3 863 1047.7 868 1143 861.8C1238.3 855.7 1333.7 838.3 1428.8 836.7C1524 835 1619 849 1714.2 849.3C1809.3 849.7 1904.7 836.3 1952.3 829.7L2000 823L2000 1001L1952.3 1001C1904.7 1001 1809.3 1001 1714.2 1001C1619 1001 1524 1001 1428.8 1001C1333.7 1001 1238.3 1001 1143 1001C1047.7 1001 952.3 1001 857 1001C761.7 1001 666.3 1001 571.2 1001C476 1001 381 1001 285.8 1001C190.7 1001 95.3 1001 47.7 1001L0 1001Z" fill="#575463"></path><path d="M0 932L47.7 924.5C95.3 917 190.7 902 285.8 896.8C381 891.7 476 896.3 571.2 905.7C666.3 915 761.7 929 857 935.3C952.3 941.7 1047.7 940.3 1143 941.8C1238.3 943.3 1333.7 947.7 1428.8 941.5C1524 935.3 1619 918.7 1714.2 907.8C1809.3 897 1904.7 892 1952.3 889.5L2000 887L2000 1001L1952.3 1001C1904.7 1001 1809.3 1001 1714.2 1001C1619 1001 1524 1001 1428.8 1001C1333.7 1001 1238.3 1001 1143 1001C1047.7 1001 952.3 1001 857 1001C761.7 1001 666.3 1001 571.2 1001C476 1001 381 1001 285.8 1001C190.7 1001 95.3 1001 47.7 1001L0 1001Z" fill="#383a3d"></path></svg>