<svg id="visual" viewBox="0 0 2000 200" width="2000" height="200" xmlns="http://www.w3.org/2000/svg" xmlns:xlink="http://www.w3.org/1999/xlink" version="1.1"><rect x="0" y="0" width="2000" height="200" fill="#ffffff"></rect><path d="M0 126L14.5 124.2C29 122.3 58 118.7 87 113.3C116 108 145 101 174 94.8C203 88.7 232 83.3 261 86.5C290 89.7 319 101.3 348 106.8C377 112.3 406 111.7 435 112.8C464 114 493 117 522 116.5C551 116 580 112 609 107C638 102 667 96 696 91.8C725 87.7 754 85.3 783 85.3C812 85.3 841 87.7 870 85.8C899 84 928 78 956.8 84.2C985.7 90.3 1014.3 108.7 1043.2 110.3C1072 112 1101 97 1130 97C1159 97 1188 112 1217 119C1246 126 1275 125 1304 119.2C1333 113.3 1362 102.7 1391 100.8C1420 99 1449 106 1478 104.7C1507 103.3 1536 93.7 1565 89.8C1594 86 1623 88 1652 96.8C1681 105.7 1710 121.3 1739 121C1768 120.7 1797 104.3 1826 101.3C1855 98.3 1884 108.7 1913 114C1942 119.3 1971 119.7 1985.5 119.8L2000 120L2000 0L1985.5 0C1971 0 1942 0 1913 0C1884 0 1855 0 1826 0C1797 0 1768 0 1739 0C1710 0 1681 0 1652 0C1623 0 1594 0 1565 0C1536 0 1507 0 1478 0C1449 0 1420 0 1391 0C1362 0 1333 0 1304 0C1275 0 1246 0 1217 0C1188 0 1159 0 1130 0C1101 0 1072 0 1043.2 0C1014.3 0 985.7 0 956.8 0C928 0 899 0 870 0C841 0 812 0 783 0C754 0 725 0 696 0C667 0 638 0 609 0C580 0 551 0 522 0C493 0 464 0 435 0C406 0 377 0 348 0C319 0 290 0 261 0C232 0 203 0 174 0C145 0 116 0 87 0C58 0 29 0 14.5 0L0 0Z" fill="#fdca90"></path><path d="M0 94L14.5 90.5C29 87 58 80 87 74.2C116 68.3 145 63.7 174 66.5C203 69.3 232 79.7 261 83.2C290 86.7 319 83.3 348 82.2C377 81 406 82 435 87.8C464 93.7 493 104.3 522 106.7C551 109 580 103 609 95.3C638 87.7 667 78.3 696 80.2C725 82 754 95 783 97.8C812 100.7 841 93.3 870 93.8C899 94.3 928 102.7 956.8 100.2C985.7 97.7 1014.3 84.3 1043.2 74.3C1072 64.3 1101 57.7 1130 57.3C1159 57 1188 63 1217 70C1246 77 1275 85 1304 82.8C1333 80.7 1362 68.3 1391 71.2C1420 74 1449 92 1478 94.7C1507 97.3 1536 84.7 1565 83.8C1594 83 1623 94 1652 91.3C1681 88.7 1710 72.3 1739 73.5C1768 74.7 1797 93.3 1826 95.7C1855 98 1884 84 1913 76.8C1942 69.7 1971 69.3 1985.5 69.2L2000 69L2000 0L1985.5 0C1971 0 1942 0 1913 0C1884 0 1855 0 1826 0C1797 0 1768 0 1739 0C1710 0 1681 0 1652 0C1623 0 1594 0 1565 0C1536 0 1507 0 1478 0C1449 0 1420 0 1391 0C1362 0 1333 0 1304 0C1275 0 1246 0 1217 0C1188 0 1159 0 1130 0C1101 0 1072 0 1043.2 0C1014.3 0 985.7 0 956.8 0C928 0 899 0 870 0C841 0 812 0 783 0C754 0 725 0 696 0C667 0 638 0 609 0C580 0 551 0 522 0C493 0 464 0 435 0C406 0 377 0 348 0C319 0 290 0 261 0C232 0 203 0 174 0C145 0 116 0 87 0C58 0 29 0 14.5 0L0 0Z" fill="#dd9890"></path><path d="M0 52L14.5 50.5C29 49 58 46 87 51C116 56 145 69 174 71.7C203 74.3 232 66.7 261 61.8C290 57 319 55 348 59.8C377 64.7 406 76.3 435 73.5C464 70.7 493 53.3 522 52.3C551 51.3 580 66.7 609 69C638 71.3 667 60.7 696 61C725 61.3 754 72.7 783 78.2C812 83.7 841 83.3 870 84C899 84.7 928 86.3 956.8 85.7C985.7 85 1014.3 82 1043.2 81.5C1072 81 1101 83 1130 75.7C1159 68.3 1188 51.7 1217 44C1246 36.3 1275 37.7 1304 41.7C1333 45.7 1362 52.3 1391 58.2C1420 64 1449 69 1478 70.8C1507 72.7 1536 71.3 1565 67.2C1594 63 1623 56 1652 57C1681 58 1710 67 1739 73C1768 79 1797 82 1826 76.3C1855 70.7 1884 56.3 1913 48C1942 39.7 1971 37.3 1985.5 36.2L2000 35L2000 0L1985.5 0C1971 0 1942 0 1913 0C1884 0 1855 0 1826 0C1797 0 1768 0 1739 0C1710 0 1681 0 1652 0C1623 0 1594 0 1565 0C1536 0 1507 0 1478 0C1449 0 1420 0 1391 0C1362 0 1333 0 1304 0C1275 0 1246 0 1217 0C1188 0 1159 0 1130 0C1101 0 1072 0 1043.2 0C1014.3 0 985.7 0 956.8 0C928 0 899 0 870 0C841 0 812 0 783 0C754 0 725 0 696 0C667 0 638 0 609 0C580 0 551 0 522 0C493 0 464 0 435 0C406 0 377 0 348 0C319 0 290 0 261 0C232 0 203 0 174 0C145 0 116 0 87 0C58 0 29 0 14.5 0L0 0Z" fill="#a17689"></path><path d="M0 62L14.5 60C29 58 58 54 87 51.7C116 49.3 145 48.7 174 49.3C203 50 232 52 261 48.7C290 45.3 319 36.7 348 33.5C377 30.3 406 32.7 435 36.7C464 40.7 493 46.3 522 43.5C551 40.7 580 29.3 609 27.3C638 25.3 667 32.7 696 37.3C725 42 754 44 783 44.7C812 45.3 841 44.7 870 46.3C899 48 928 52 956.8 47.3C985.7 42.7 1014.3 29.3 1043.2 24.8C1072 20.3 1101 24.7 1130 28.2C1159 31.7 1188 34.3 1217 38.2C1246 42 1275 47 1304 49.2C1333 51.3 1362 50.7 1391 48.5C1420 46.3 1449 42.7 1478 44.8C1507 47 1536 55 1565 55.7C1594 56.3 1623 49.7 1652 47.7C1681 45.7 1710 48.3 1739 47.7C1768 47 1797 43 1826 43.2C1855 43.3 1884 47.7 1913 47C1942 46.3 1971 40.7 1985.5 37.8L2000 35L2000 0L1985.5 0C1971 0 1942 0 1913 0C1884 0 1855 0 1826 0C1797 0 1768 0 1739 0C1710 0 1681 0 1652 0C1623 0 1594 0 1565 0C1536 0 1507 0 1478 0C1449 0 1420 0 1391 0C1362 0 1333 0 1304 0C1275 0 1246 0 1217 0C1188 0 1159 0 1130 0C1101 0 1072 0 1043.2 0C1014.3 0 985.7 0 956.8 0C928 0 899 0 870 0C841 0 812 0 783 0C754 0 725 0 696 0C667 0 638 0 609 0C580 0 551 0 522 0C493 0 464 0 435 0C406 0 377 0 348 0C319 0 290 0 261 0C232 0 203 0 174 0C145 0 116 0 87 0C58 0 29 0 14.5 0L0 0Z" fill="#615a6b"></path><path d="M0 12L14.5 12.8C29 13.7 58 15.3 87 16C116 16.7 145 16.3 174 16.2C203 16 232 16 261 19.2C290 22.3 319 28.7 348 28.2C377 27.7 406 20.3 435 17.3C464 14.3 493 15.7 522 19C551 22.3 580 27.7 609 26.2C638 24.7 667 16.3 696 15.5C725 14.7 754 21.3 783 23C812 24.7 841 21.3 870 20C899 18.7 928 19.3 956.8 22.2C985.7 25 1014.3 30 1043.2 33.8C1072 37.7 1101 40.3 1130 40.3C1159 40.3 1188 37.7 1217 33.7C1246 29.7 1275 24.3 1304 25.3C1333 26.3 1362 33.7 1391 33.8C1420 34 1449 27 1478 27.3C1507 27.7 1536 35.3 1565 38.7C1594 42 1623 41 1652 38.7C1681 36.3 1710 32.7 1739 28.8C1768 25 1797 21 1826 23.5C1855 26 1884 35 1913 39.8C1942 44.7 1971 45.3 1985.5 45.7L2000 46L2000 0L1985.5 0C1971 0 1942 0 1913 0C1884 0 1855 0 1826 0C1797 0 1768 0 1739 0C1710 0 1681 0 1652 0C1623 0 1594 0 1565 0C1536 0 1507 0 1478 0C1449 0 1420 0 1391 0C1362 0 1333 0 1304 0C1275 0 1246 0 1217 0C1188 0 1159 0 1130 0C1101 0 1072 0 1043.2 0C1014.3 0 985.7 0 956.8 0C928 0 899 0 870 0C841 0 812 0 783 0C754 0 725 0 696 0C667 0 638 0 609 0C580 0 551 0 522 0C493 0 464 0 435 0C406 0 377 0 348 0C319 0 290 0 261 0C232 0 203 0 174 0C145 0 116 0 87 0C58 0 29 0 14.5 0L0 0Z" fill="#383a3d"></path></svg>