<svg id="visual" viewBox="0 0 2000 200" width="2000" height="200" xmlns="http://www.w3.org/2000/svg" xmlns:xlink="http://www.w3.org/1999/xlink" version="1.1"><rect x="0" y="0" width="2000" height="200" fill="#ffffff"></rect><path d="M0 72L14.5 73.8C29 75.7 58 79.3 87 84.7C116 90 145 97 174 103.2C203 109.3 232 114.7 261 111.5C290 108.3 319 96.7 348 91.2C377 85.7 406 86.3 435 85.2C464 84 493 81 522 81.5C551 82 580 86 609 91C638 96 667 102 696 106.2C725 110.3 754 112.7 783 112.7C812 112.7 841 110.3 870 112.2C899 114 928 120 956.8 113.8C985.7 107.7 1014.3 89.3 1043.2 87.7C1072 86 1101 101 1130 101C1159 101 1188 86 1217 79C1246 72 1275 73 1304 78.8C1333 84.7 1362 95.3 1391 97.2C1420 99 1449 92 1478 93.3C1507 94.7 1536 104.3 1565 108.2C1594 112 1623 110 1652 101.2C1681 92.3 1710 76.7 1739 77C1768 77.3 1797 93.7 1826 96.7C1855 99.7 1884 89.3 1913 84C1942 78.7 1971 78.3 1985.5 78.2L2000 78L2000 201L1985.5 201C1971 201 1942 201 1913 201C1884 201 1855 201 1826 201C1797 201 1768 201 1739 201C1710 201 1681 201 1652 201C1623 201 1594 201 1565 201C1536 201 1507 201 1478 201C1449 201 1420 201 1391 201C1362 201 1333 201 1304 201C1275 201 1246 201 1217 201C1188 201 1159 201 1130 201C1101 201 1072 201 1043.2 201C1014.3 201 985.7 201 956.8 201C928 201 899 201 870 201C841 201 812 201 783 201C754 201 725 201 696 201C667 201 638 201 609 201C580 201 551 201 522 201C493 201 464 201 435 201C406 201 377 201 348 201C319 201 290 201 261 201C232 201 203 201 174 201C145 201 116 201 87 201C58 201 29 201 14.5 201L0 201Z" fill="#fdca90"></path><path d="M0 104L14.5 107.5C29 111 58 118 87 123.8C116 129.7 145 134.3 174 131.5C203 128.7 232 118.3 261 114.8C290 111.3 319 114.7 348 115.8C377 117 406 116 435 110.2C464 104.3 493 93.7 522 91.3C551 89 580 95 609 102.7C638 110.3 667 119.7 696 117.8C725 116 754 103 783 100.2C812 97.3 841 104.7 870 104.2C899 103.7 928 95.3 956.8 97.8C985.7 100.3 1014.3 113.7 1043.2 123.7C1072 133.7 1101 140.3 1130 140.7C1159 141 1188 135 1217 128C1246 121 1275 113 1304 115.2C1333 117.3 1362 129.7 1391 126.8C1420 124 1449 106 1478 103.3C1507 100.7 1536 113.3 1565 114.2C1594 115 1623 104 1652 106.7C1681 109.3 1710 125.7 1739 124.5C1768 123.3 1797 104.7 1826 102.3C1855 100 1884 114 1913 121.2C1942 128.3 1971 128.7 1985.5 128.8L2000 129L2000 201L1985.5 201C1971 201 1942 201 1913 201C1884 201 1855 201 1826 201C1797 201 1768 201 1739 201C1710 201 1681 201 1652 201C1623 201 1594 201 1565 201C1536 201 1507 201 1478 201C1449 201 1420 201 1391 201C1362 201 1333 201 1304 201C1275 201 1246 201 1217 201C1188 201 1159 201 1130 201C1101 201 1072 201 1043.2 201C1014.3 201 985.7 201 956.8 201C928 201 899 201 870 201C841 201 812 201 783 201C754 201 725 201 696 201C667 201 638 201 609 201C580 201 551 201 522 201C493 201 464 201 435 201C406 201 377 201 348 201C319 201 290 201 261 201C232 201 203 201 174 201C145 201 116 201 87 201C58 201 29 201 14.5 201L0 201Z" fill="#dd9890"></path><path d="M0 146L14.5 147.5C29 149 58 152 87 147C116 142 145 129 174 126.3C203 123.7 232 131.3 261 136.2C290 141 319 143 348 138.2C377 133.3 406 121.7 435 124.5C464 127.3 493 144.7 522 145.7C551 146.7 580 131.3 609 129C638 126.7 667 137.3 696 137C725 136.7 754 125.3 783 119.8C812 114.3 841 114.7 870 114C899 113.3 928 111.7 956.8 112.3C985.7 113 1014.3 116 1043.2 116.5C1072 117 1101 115 1130 122.3C1159 129.7 1188 146.3 1217 154C1246 161.7 1275 160.3 1304 156.3C1333 152.3 1362 145.7 1391 139.8C1420 134 1449 129 1478 127.2C1507 125.3 1536 126.7 1565 130.8C1594 135 1623 142 1652 141C1681 140 1710 131 1739 125C1768 119 1797 116 1826 121.7C1855 127.3 1884 141.7 1913 150C1942 158.3 1971 160.7 1985.5 161.8L2000 163L2000 201L1985.5 201C1971 201 1942 201 1913 201C1884 201 1855 201 1826 201C1797 201 1768 201 1739 201C1710 201 1681 201 1652 201C1623 201 1594 201 1565 201C1536 201 1507 201 1478 201C1449 201 1420 201 1391 201C1362 201 1333 201 1304 201C1275 201 1246 201 1217 201C1188 201 1159 201 1130 201C1101 201 1072 201 1043.2 201C1014.3 201 985.7 201 956.8 201C928 201 899 201 870 201C841 201 812 201 783 201C754 201 725 201 696 201C667 201 638 201 609 201C580 201 551 201 522 201C493 201 464 201 435 201C406 201 377 201 348 201C319 201 290 201 261 201C232 201 203 201 174 201C145 201 116 201 87 201C58 201 29 201 14.5 201L0 201Z" fill="#a17689"></path><path d="M0 136L14.5 138C29 140 58 144 87 146.3C116 148.7 145 149.3 174 148.7C203 148 232 146 261 149.3C290 152.7 319 161.3 348 164.5C377 167.7 406 165.3 435 161.3C464 157.3 493 151.7 522 154.5C551 157.3 580 168.7 609 170.7C638 172.7 667 165.3 696 160.7C725 156 754 154 783 153.3C812 152.7 841 153.3 870 151.7C899 150 928 146 956.8 150.7C985.7 155.3 1014.3 168.7 1043.2 173.2C1072 177.7 1101 173.3 1130 169.8C1159 166.3 1188 163.7 1217 159.8C1246 156 1275 151 1304 148.8C1333 146.7 1362 147.3 1391 149.5C1420 151.7 1449 155.3 1478 153.2C1507 151 1536 143 1565 142.3C1594 141.7 1623 148.3 1652 150.3C1681 152.3 1710 149.7 1739 150.3C1768 151 1797 155 1826 154.8C1855 154.7 1884 150.3 1913 151C1942 151.7 1971 157.3 1985.5 160.2L2000 163L2000 201L1985.5 201C1971 201 1942 201 1913 201C1884 201 1855 201 1826 201C1797 201 1768 201 1739 201C1710 201 1681 201 1652 201C1623 201 1594 201 1565 201C1536 201 1507 201 1478 201C1449 201 1420 201 1391 201C1362 201 1333 201 1304 201C1275 201 1246 201 1217 201C1188 201 1159 201 1130 201C1101 201 1072 201 1043.2 201C1014.3 201 985.7 201 956.8 201C928 201 899 201 870 201C841 201 812 201 783 201C754 201 725 201 696 201C667 201 638 201 609 201C580 201 551 201 522 201C493 201 464 201 435 201C406 201 377 201 348 201C319 201 290 201 261 201C232 201 203 201 174 201C145 201 116 201 87 201C58 201 29 201 14.5 201L0 201Z" fill="#615a6b"></path><path d="M0 186L14.5 185.2C29 184.3 58 182.7 87 182C116 181.3 145 181.7 174 181.8C203 182 232 182 261 178.8C290 175.7 319 169.3 348 169.8C377 170.3 406 177.7 435 180.7C464 183.7 493 182.3 522 179C551 175.7 580 170.3 609 171.8C638 173.3 667 181.7 696 182.5C725 183.3 754 176.7 783 175C812 173.3 841 176.7 870 178C899 179.3 928 178.7 956.8 175.8C985.7 173 1014.3 168 1043.2 164.2C1072 160.3 1101 157.7 1130 157.7C1159 157.7 1188 160.3 1217 164.3C1246 168.3 1275 173.7 1304 172.7C1333 171.7 1362 164.3 1391 164.2C1420 164 1449 171 1478 170.7C1507 170.3 1536 162.7 1565 159.3C1594 156 1623 157 1652 159.3C1681 161.7 1710 165.3 1739 169.2C1768 173 1797 177 1826 174.5C1855 172 1884 163 1913 158.2C1942 153.3 1971 152.7 1985.5 152.3L2000 152L2000 201L1985.5 201C1971 201 1942 201 1913 201C1884 201 1855 201 1826 201C1797 201 1768 201 1739 201C1710 201 1681 201 1652 201C1623 201 1594 201 1565 201C1536 201 1507 201 1478 201C1449 201 1420 201 1391 201C1362 201 1333 201 1304 201C1275 201 1246 201 1217 201C1188 201 1159 201 1130 201C1101 201 1072 201 1043.2 201C1014.3 201 985.7 201 956.8 201C928 201 899 201 870 201C841 201 812 201 783 201C754 201 725 201 696 201C667 201 638 201 609 201C580 201 551 201 522 201C493 201 464 201 435 201C406 201 377 201 348 201C319 201 290 201 261 201C232 201 203 201 174 201C145 201 116 201 87 201C58 201 29 201 14.5 201L0 201Z" fill="#383a3d"></path></svg>